<svg width="87" height="87" viewBox="0 0 87 87" fill="none" xmlns="http://www.w3.org/2000/svg">
<path d="M40.9131 3.58203C42.3013 2.05851 44.6987 2.05851 46.0869 3.58203L50.4102 8.32715C51.5942 9.62671 53.4273 10.1174 55.1025 9.58398L61.2188 7.63672C63.1828 7.01146 65.2588 8.21004 65.6992 10.2236L67.0713 16.4941C67.4469 18.2117 68.7883 19.5531 70.5059 19.9287L76.7764 21.3008C78.79 21.7412 79.9885 23.8172 79.3633 25.7812L77.416 31.8975C76.8826 33.5727 77.3733 35.4058 78.6729 36.5898L83.418 40.9131C84.9415 42.3013 84.9415 44.6987 83.418 46.0869L78.6729 50.4102C77.3733 51.5942 76.8826 53.4273 77.416 55.1025L79.3633 61.2188C79.9885 63.1828 78.79 65.2588 76.7764 65.6992L70.5059 67.0713C68.7883 67.4469 67.4469 68.7883 67.0713 70.5059L65.6992 76.7764C65.2588 78.79 63.1828 79.9885 61.2188 79.3633L55.1025 77.416C53.4273 76.8826 51.5942 77.3733 50.4102 78.6729L46.0869 83.418C44.6987 84.9415 42.3013 84.9415 40.9131 83.418L36.5898 78.6729C35.4058 77.3733 33.5727 76.8826 31.8975 77.416L25.7812 79.3633C23.8172 79.9885 21.7412 78.79 21.3008 76.7764L19.9287 70.5059C19.5531 68.7883 18.2117 67.4469 16.4941 67.0713L10.2236 65.6992C8.21004 65.2588 7.01146 63.1828 7.63672 61.2188L9.58398 55.1025C10.1174 53.4273 9.62672 51.5942 8.32715 50.4102L3.58203 46.0869C2.05851 44.6987 2.05851 42.3013 3.58203 40.9131L8.32715 36.5898C9.62671 35.4058 10.1174 33.5727 9.58398 31.8975L7.63672 25.7812C7.01146 23.8172 8.21004 21.7412 10.2236 21.3008L16.4941 19.9287C18.2117 19.5531 19.5531 18.2117 19.9287 16.4941L21.3008 10.2236C21.7412 8.21004 23.8172 7.01146 25.7812 7.63672L31.8975 9.58398C33.5727 10.1174 35.4058 9.62672 36.5898 8.32715L40.9131 3.58203Z" fill="#D6E796" stroke="#FEFCF6"/>
</svg>
