<svg width="40" height="40" viewBox="0 0 40 40" fill="none" xmlns="http://www.w3.org/2000/svg">
<path d="M19.4663 0.474123C19.5413 -0.158041 20.4587 -0.158041 20.5337 0.474123L21.163 5.77741C21.9755 12.6254 27.3746 18.0245 34.2225 18.837L39.5258 19.4663C40.1581 19.5413 40.1581 20.4587 39.5258 20.5337L34.2225 21.163C27.3746 21.9755 21.9755 27.3746 21.163 34.2225L20.5337 39.5258C20.4587 40.1581 19.5413 40.1581 19.4663 39.5258L18.837 34.2225C18.0245 27.3746 12.6254 21.9755 5.77741 21.163L0.474123 20.5337C-0.158041 20.4587 -0.158041 19.5413 0.474123 19.4663L5.77741 18.837C12.6254 18.0245 18.0245 12.6254 18.837 5.77741L19.4663 0.474123Z" fill="#F3EEE8"/>
</svg>
